<?xml version="1.0" encoding="UTF-8" standalone="no"?><!DOCTYPE svg PUBLIC "-//W3C//DTD SVG 1.1//EN" "http://www.w3.org/Graphics/SVG/1.1/DTD/svg11.dtd"><svg width="100%" height="100%" viewBox="0 0 1080 1080" version="1.1" xmlns="http://www.w3.org/2000/svg" xmlns:xlink="http://www.w3.org/1999/xlink" xml:space="preserve" xmlns:serif="http://www.serif.com/" style="fill-rule:evenodd;clip-rule:evenodd;stroke-linejoin:round;stroke-miterlimit:2;"><rect id="Thermal-Logo-Color" serif:id="Thermal Logo Color" x="0" y="0" width="1080" height="1080" style="fill:none;"/><g id="Colored"><circle cx="540" cy="540" r="540"/><g><path d="M185.131,494.737c-9.635,8.816 -21.488,15.687 -36.514,19.776c-9.452,1.628 -19.224,1.613 -36.514,-2.197c5.049,-14.187 13.728,-27.621 29.668,-39.551c-17.985,-3.848 -36.34,-0.476 -54.771,4.394c9.797,-24.869 24.06,-48.562 70.746,-63.721c-22.818,-92.788 -43.529,-183.568 6.846,-206.544c72.166,-4.196 137.664,50.397 203.108,105.469l-15.975,129.64l-166.594,52.734Z" style="fill:#fff;"/><path d="M221.645,429.753c-25.168,-49.316 -44.121,-97.984 -38.796,-145.02c4.041,-13.69 14.295,-18.556 29.667,-15.381c34.707,14.585 69.624,34.605 104.978,65.918l22.821,68.116l-118.67,26.367Z" style="fill:#b54b1c;"/></g><g><path d="M894.869,494.737c9.635,8.816 21.488,15.687 36.514,19.776c9.452,1.628 19.224,1.613 36.514,-2.197c-5.049,-14.187 -13.728,-27.621 -29.668,-39.551c17.985,-3.848 36.34,-0.476 54.771,4.394c-9.797,-24.869 -24.06,-48.562 -70.746,-63.721c22.818,-92.788 43.529,-183.568 -6.846,-206.544c-72.166,-4.196 -137.664,50.397 -203.108,105.469l15.975,129.64l166.594,52.734Z" style="fill:#fff;"/><path d="M858.355,429.753c25.168,-49.316 44.121,-97.984 38.796,-145.02c-4.041,-13.69 -14.295,-18.556 -29.667,-15.381c-34.707,14.585 -69.624,34.605 -104.978,65.918l-22.821,68.116l118.67,26.367Z" style="fill:#b54b1c;"/></g><path d="M155.463,629.706c12.864,-209.524 131.865,-315.552 296.676,-340.579c60.088,-5.8 124.415,-4.445 189.415,2.198c143.826,26.841 258.261,113.759 282.983,329.592c-2.283,92.286 -50.207,182.181 -239.623,235.109c-63.697,17.799 -152.073,26.891 -285.264,2.197c-140.669,-39.695 -244.189,-103.348 -244.187,-228.517Z" style="fill:#ed681f;"/><clipPath id="_clip1"><path d="M155.463,629.706c12.864,-209.524 131.865,-315.552 296.676,-340.579c60.088,-5.8 124.415,-4.445 189.415,2.198c143.826,26.841 258.261,113.759 282.983,329.592c-2.283,92.286 -50.207,182.181 -239.623,235.109c-63.697,17.799 -152.073,26.891 -285.264,2.197c-140.669,-39.695 -244.189,-103.348 -244.187,-228.517Z"/></clipPath><g clip-path="url(#_clip1)"><g><g><ellipse cx="409.919" cy="627.673" rx="39.937" ry="38.452" style="fill:#010100;"/><ellipse cx="667.798" cy="627.673" rx="39.937" ry="38.452" style="fill:#010100;"/><path d="M445.292,519.078c20.153,11.963 30.972,30.33 24.145,40.992c-6.827,10.661 -28.73,9.605 -48.883,-2.358c-20.152,-11.962 -30.971,-30.33 -24.145,-40.991c6.827,-10.661 28.731,-9.605 48.883,2.357Z" style="fill:#fff;"/><path d="M633.513,519.078c-20.153,11.963 -30.972,30.33 -24.145,40.992c6.827,10.661 28.73,9.605 48.883,-2.358c20.152,-11.962 30.971,-30.33 24.145,-40.991c-6.827,-10.661 -28.731,-9.605 -48.883,2.357Z" style="fill:#fff;"/><path d="M308.365,826.527c-17.78,-22.553 -23.618,-45.284 -22.821,-68.116c-0.957,-33.27 19.975,-66.138 47.925,-98.877c11.731,-27.348 1.917,-39.31 -27.386,-37.354c-45.715,14.41 -74.602,45.217 -93.567,85.694c-4.373,37.1 10.355,67.399 20.539,81.299c17.366,22.643 40.99,37.042 75.31,37.354Z" style="fill:#fff;"/><path d="M769.622,826.527c17.78,-22.553 23.618,-45.284 22.821,-68.116c0.957,-33.27 -19.975,-66.138 -47.925,-98.877c-11.731,-27.348 -1.918,-39.31 27.386,-37.354c45.714,14.41 74.602,45.217 93.566,85.694c4.374,37.1 -10.354,67.399 -20.539,81.299c-17.365,22.643 -40.989,37.042 -75.309,37.354Z" style="fill:#fff;"/><path d="M401.932,760.608c6.846,-63.721 82.156,-112.061 136.927,-116.455c59.335,-2.198 134.645,61.523 139.209,116.455c-2.282,54.933 -50.771,82.729 -136.927,85.694c-99.645,-1.345 -137.538,-34.26 -139.209,-85.694Z" style="fill:#fff;"/></g></g><path d="M540,767.168c-7.86,10.654 -20.779,17.611 -35.373,17.611c-19.05,-0 -35.231,-11.829 -41.052,-28.275c-0.156,-0.38 -0.288,-0.771 -0.395,-1.172c-0.206,-0.777 -0.316,-1.59 -0.316,-2.427c0,-5.287 4.367,-9.61 9.85,-9.875c0.177,-0.008 0.355,-0.013 0.534,-0.013c0.179,0 0.357,0.005 0.534,0.013c3.988,0.193 7.385,2.532 8.941,5.828c0.302,0.638 0.534,1.312 0.688,2.013c3.274,8.208 11.539,14.034 21.216,14.034c12.539,-0 22.719,-9.802 22.719,-21.875l0,-0.013l0.07,-7.547c-18.386,-3.183 -31.917,-13.847 -31.917,-26.498c-0,-15.159 19.429,-27.466 43.36,-27.466c23.931,0 43.36,12.307 43.36,27.466c0,12.122 -12.424,22.421 -29.64,26.061l0.075,7.984l-0,0.013c-0,12.073 10.18,21.875 22.719,21.875c9.677,-0 17.942,-5.826 21.216,-14.034c0.154,-0.701 0.386,-1.375 0.688,-2.013c1.556,-3.296 4.953,-5.635 8.941,-5.828c0.177,-0.008 0.355,-0.013 0.534,-0.013c0.179,0 0.357,0.005 0.534,0.013c5.483,0.265 9.85,4.588 9.85,9.875c-0,0.837 -0.11,1.65 -0.316,2.427c-0.107,0.401 -0.239,0.792 -0.395,1.172c-5.821,16.446 -22.002,28.275 -41.052,28.275c-14.594,-0 -27.513,-6.957 -35.373,-17.611Z"/></g></g></svg>