<?xml version="1.0" encoding="UTF-8" standalone="no"?><!DOCTYPE svg PUBLIC "-//W3C//DTD SVG 1.1//EN" "http://www.w3.org/Graphics/SVG/1.1/DTD/svg11.dtd"><svg width="100%" height="100%" viewBox="0 0 4500 4500" version="1.1" xmlns="http://www.w3.org/2000/svg" xmlns:xlink="http://www.w3.org/1999/xlink" xml:space="preserve" xmlns:serif="http://www.serif.com/" style="fill-rule:evenodd;clip-rule:evenodd;stroke-linejoin:round;stroke-miterlimit:2;"><g><g id="Red-Panda" serif:id="Red Panda"><g id="Face"><g><path d="M421.411,1300.81c-30.535,29.016 -68.099,51.633 -115.721,65.093c-29.955,5.36 -60.925,5.308 -115.721,-7.232c16.001,-46.697 43.507,-90.918 94.023,-130.186c-56.997,-12.666 -115.168,-1.566 -173.581,14.465c31.047,-81.859 76.252,-159.848 224.209,-209.744c-72.314,-305.422 -137.953,-604.231 21.698,-679.861c228.71,-13.81 436.29,165.889 643.697,347.163l-50.628,426.721l-527.976,173.581Z" style="fill:#fff;"/><path d="M537.132,1086.9c-79.762,-162.331 -139.828,-322.526 -122.954,-477.349c12.807,-45.062 45.306,-61.079 94.023,-50.628c109.993,48.008 220.653,113.905 332.698,216.977l72.326,224.209l-376.093,86.791Z" style="fill:#b54b1c;"/></g><g><path d="M2670.74,1300.81c30.535,29.016 68.099,51.633 115.721,65.093c29.955,5.36 60.925,5.308 115.721,-7.232c-16.001,-46.697 -43.507,-90.918 -94.023,-130.186c56.997,-12.666 115.167,-1.566 173.581,14.465c-31.048,-81.859 -76.252,-159.848 -224.209,-209.744c72.314,-305.422 137.953,-604.231 -21.698,-679.861c-228.71,-13.81 -436.29,165.889 -643.698,347.163l50.628,426.721l527.977,173.581Z" style="fill:#fff;"/><path d="M2555.01,1086.9c79.762,-162.331 139.828,-322.526 122.954,-477.349c-12.807,-45.062 -45.306,-61.079 -94.024,-50.628c-109.992,48.008 -220.652,113.905 -332.697,216.977l-72.326,224.209l376.093,86.791Z" style="fill:#b54b1c;"/></g><path d="M327.388,1745.07c40.767,-689.669 417.91,-1038.67 940.232,-1121.05c190.433,-19.092 394.301,-14.633 600.302,7.233c455.818,88.351 818.488,374.45 896.837,1084.88c-7.232,303.768 -159.116,599.667 -759.418,773.884c-201.873,58.586 -481.955,88.516 -904.07,7.232c-445.811,-130.66 -773.892,-340.181 -773.883,-752.186Z" style="fill:#ed681f;"/><clipPath id="_clip1"><path d="M327.388,1745.07c40.767,-689.669 417.91,-1038.67 940.232,-1121.05c190.433,-19.092 394.301,-14.633 600.302,7.233c455.818,88.351 818.488,374.45 896.837,1084.88c-7.232,303.768 -159.116,599.667 -759.418,773.884c-201.873,58.586 -481.955,88.516 -904.07,7.232c-445.811,-130.66 -773.892,-340.181 -773.883,-752.186Z"/></clipPath><g clip-path="url(#_clip1)"><g><circle cx="1133.82" cy="1738.38" r="126.57" style="fill:#010100;"/><circle cx="1951.1" cy="1738.38" r="126.57" style="fill:#010100;"/><path d="M1245.92,1380.93c63.868,39.376 98.156,99.835 76.521,134.928c-21.635,35.092 -91.053,31.615 -154.921,-7.76c-63.868,-39.376 -98.156,-99.835 -76.521,-134.927c21.635,-35.093 91.053,-31.616 154.921,7.759Z" style="fill:#fff;"/><path d="M1842.44,1380.93c-63.868,39.376 -98.156,99.835 -76.521,134.928c21.636,35.092 91.053,31.615 154.921,-7.76c63.869,-39.376 98.156,-99.835 76.521,-134.927c-21.635,-35.093 -91.053,-31.616 -154.921,7.759Z" style="fill:#fff;"/><path d="M811.969,2392.92c-56.349,-74.233 -74.852,-149.057 -72.326,-224.209c-3.034,-109.513 63.306,-217.701 151.884,-325.465c37.18,-90.017 6.078,-129.392 -86.791,-122.954c-144.88,47.434 -236.432,148.838 -296.535,282.07c-13.86,122.119 32.815,221.852 65.093,267.605c55.035,74.531 129.906,121.926 238.675,122.953Z" style="fill:#fff;"/><path d="M2273.8,2392.92c56.349,-74.233 74.852,-149.057 72.325,-224.209c3.034,-109.513 -63.305,-217.701 -151.883,-325.465c-37.18,-90.017 -6.079,-129.392 86.79,-122.954c144.881,47.434 236.433,148.838 296.535,282.07c13.861,122.119 -32.815,221.852 -65.093,267.605c-55.034,74.531 -129.906,121.926 -238.674,122.953Z" style="fill:#fff;"/><path d="M1108.5,2175.95c21.697,-209.745 260.372,-368.861 433.953,-383.326c188.047,-7.233 426.721,202.512 441.186,383.326c-7.232,180.813 -160.906,272.307 -433.953,282.069c-315.797,-4.428 -435.889,-112.772 -441.186,-282.069Z" style="fill:#fff;"/><path d="M1546.07,2197.54c-24.91,35.068 -65.854,57.966 -112.104,57.966c-60.376,-0 -111.657,-38.936 -130.105,-93.068c-0.495,-1.251 -0.913,-2.539 -1.251,-3.858c-0.653,-2.557 -1,-5.233 -1,-7.989c-0,-17.401 13.838,-31.631 31.215,-32.504c0.561,-0.028 1.125,-0.042 1.693,-0.042c0.568,-0 1.132,0.014 1.693,0.042c12.638,0.635 23.404,8.335 28.336,19.181c0.956,2.101 1.692,4.319 2.181,6.627c10.376,27.017 36.568,46.193 67.238,46.193c39.738,0 72.001,-32.262 72.001,-72.001l0,-0.042l0.223,-24.842c-58.271,-10.477 -101.154,-45.58 -101.154,-87.221c-0,-49.896 61.575,-90.407 137.418,-90.407c75.843,0 137.419,40.511 137.419,90.407c-0,39.901 -39.376,73.8 -93.935,85.78l0.236,26.283l-0,0.042c-0,39.739 32.262,72.001 72.001,72.001c30.67,0 56.862,-19.176 67.238,-46.193c0.489,-2.308 1.225,-4.526 2.18,-6.627c4.933,-10.846 15.699,-18.546 28.337,-19.181c0.561,-0.028 1.125,-0.042 1.693,-0.042c0.567,-0 1.132,0.014 1.692,0.042c17.378,0.873 31.216,15.103 31.216,32.504c-0,2.756 -0.347,5.432 -1.001,7.989c-0.337,1.319 -0.756,2.607 -1.25,3.858c-18.448,54.132 -69.729,93.068 -130.105,93.068c-46.25,-0 -87.194,-22.898 -112.105,-57.966Z" style="fill:#010100;"/></g></g></g><path d="M2902.32,1808.94l829.454,-368.886c304.561,-53.75 595.463,149.877 649.212,454.438c53.75,304.56 -149.877,595.462 -454.437,649.212l-1639.25,3.673c327.056,-102.233 572.851,-389.169 615.016,-738.437Z" style="fill:#eb671e;"/><clipPath id="_clip2"><path d="M2902.32,1808.94l829.454,-368.886c304.561,-53.75 595.463,149.877 649.212,454.438c53.75,304.56 -149.877,595.462 -454.437,649.212l-1639.25,3.673c327.056,-102.233 572.851,-389.169 615.016,-738.437Z"/></clipPath><g clip-path="url(#_clip2)"><g><path d="M4458.76,-80.612c1006.79,-0 1824.18,830.626 1824.18,1853.73c0,1023.1 -817.389,1853.73 -1824.18,1853.73c-1006.8,-0 -1824.18,-830.626 -1824.18,-1853.73c0,-1023.1 817.389,-1853.73 1824.18,-1853.73Zm-0,268.841c860.781,-0 1559.63,710.163 1559.63,1584.88c-0,874.721 -698.846,1584.88 -1559.63,1584.88c-860.782,-0 -1559.63,-710.163 -1559.63,-1584.88c-0,-874.721 698.845,-1584.88 1559.63,-1584.88Z" style="fill:#b3491b;"/><path d="M4950.57,-275.891c1006.79,-0 1824.18,830.626 1824.18,1853.73c0,1023.1 -817.389,1853.73 -1824.18,1853.73c-1006.8,-0 -1824.18,-830.626 -1824.18,-1853.73c0,-1023.1 817.389,-1853.73 1824.18,-1853.73Zm-0,268.841c860.781,-0 1559.63,710.163 1559.63,1584.88c-0,874.721 -698.846,1584.88 -1559.63,1584.88c-860.782,-0 -1559.63,-710.163 -1559.63,-1584.88c-0,-874.721 698.845,-1584.88 1559.63,-1584.88Z" style="fill:#b3491b;"/><path d="M5432.63,-355.449c969.477,-0 1756.57,799.838 1756.57,1785.02c0,985.177 -787.092,1785.02 -1756.57,1785.02c-969.477,0 -1756.57,-799.839 -1756.57,-1785.02c0,-985.177 787.093,-1785.02 1756.57,-1785.02Zm-0,258.876c828.876,-0 1501.82,683.84 1501.82,1526.14c0,842.3 -672.942,1526.14 -1501.82,1526.14c-828.877,-0 -1501.82,-683.84 -1501.82,-1526.14c0,-842.299 672.942,-1526.14 1501.82,-1526.14Z" style="fill:#b3491b;"/></g></g></g><g transform="matrix(1957.61,0,0,1957.61,4289.82,4122.55)"></g><text x="237.902px" y="4122.55px" style="font-family:'SFProDisplay-Heavy', 'SF Pro Display';font-weight:800;font-size:1957.61px;fill:#010100;">ONE</text></g></svg>